<svg id="Layer_1" data-name="Layer 1" xmlns="http://www.w3.org/2000/svg" xmlns:xlink="http://www.w3.org/1999/xlink" viewBox="0 0 904.73 747.3"><defs><style>.cls-1{fill:url(#linear-gradient);}.cls-2{fill:#fff100;opacity:0.75;}.cls-3{fill:url(#linear-gradient-2);}.cls-4{fill:#231f20;}.cls-5{fill:#292923;}.cls-6{fill:#243638;}.cls-7{fill:#0d1717;}.cls-8{fill:#fafbfb;}.cls-9{fill:#ec412f;}.cls-10{fill:#f9a11b;}.cls-11{fill:#7fc142;}.cls-12{fill:url(#linear-gradient-3);}.cls-13{fill:url(#linear-gradient-4);}.cls-14{fill:url(#linear-gradient-5);}.cls-15{fill:url(#linear-gradient-6);}.cls-16{fill:#fff;}.cls-17{fill:#f3d01f;}.cls-18{fill:#58595b;}.cls-19{fill:#ec1c24;}.cls-20{fill:#3abfce;}</style><linearGradient id="linear-gradient" x1="2460.58" y1="1860.31" x2="2405.84" y2="1937.21" gradientTransform="translate(-2623.91 1118.53) rotate(-56.46)" gradientUnits="userSpaceOnUse"><stop offset="0" stop-color="#fff100"/><stop offset="1" stop-color="#f4d235"/></linearGradient><linearGradient id="linear-gradient-2" x1="431.55" y1="494.87" x2="891.25" y2="494.87" gradientTransform="matrix(1, 0, 0, 1, 0, 0)" xlink:href="#linear-gradient"/><linearGradient id="linear-gradient-3" x1="634.14" y1="64.92" x2="581.85" y2="138.37" gradientTransform="matrix(1, 0, 0, 1, 0, 0)" xlink:href="#linear-gradient"/><linearGradient id="linear-gradient-4" x1="749.18" y1="406.25" x2="920.99" y2="197.1" gradientTransform="matrix(1, 0, 0, 1, 0, 0)" xlink:href="#linear-gradient"/><linearGradient id="linear-gradient-5" x1="-1130.58" y1="8495.93" x2="-1166.82" y2="8546.84" gradientTransform="translate(-887.67 9160.37) rotate(180)" xlink:href="#linear-gradient"/><linearGradient id="linear-gradient-6" x1="-1131.17" y1="8820.03" x2="-925.08" y2="8569.14" gradientTransform="translate(-887.67 9160.37) rotate(180)" xlink:href="#linear-gradient"/></defs><title>boloArtboard 7</title><polygon class="cls-1" points="96.86 320.36 552.05 69.88 508.67 30.89 199 86.32 96.86 320.36"/><polygon class="cls-2" points="367.03 704.55 54.79 629.09 0 423.88 95.09 301.53 367.03 704.55"/><polygon class="cls-3" points="891.25 337.2 857.83 607.72 741.83 652.54 431.55 604.41 891.25 337.2"/><polygon class="cls-2" points="380.78 51.19 664.24 0 904.74 305.67 785.75 584.01 380.78 51.19"/><circle class="cls-4" cx="460.13" cy="401.04" r="346.27"/><path class="cls-5" d="M159.78,130.49V461.06a8,8,0,0,0,7.92,8H752.55a8,8,0,0,0,7.93-8V130.49Z"/><path class="cls-6" d="M752.55,96.24H167.7a7.86,7.86,0,0,0-7.92,7.76v27h600.7V104A7.87,7.87,0,0,0,752.55,96.24Z"/><path class="cls-7" d="M183.09,113.8a5.58,5.58,0,1,1-5.58-5.58A5.58,5.58,0,0,1,183.09,113.8Z"/><path class="cls-8" d="M182.23,113.8a4.72,4.72,0,1,1-4.72-4.72A4.72,4.72,0,0,1,182.23,113.8Z"/><path class="cls-9" d="M181.38,113.8a3.87,3.87,0,1,1-3.87-3.86A3.86,3.86,0,0,1,181.38,113.8Z"/><path class="cls-7" d="M199,113.8a5.58,5.58,0,1,1-5.57-5.58A5.57,5.57,0,0,1,199,113.8Z"/><path class="cls-8" d="M198.14,113.8a4.72,4.72,0,1,1-4.71-4.72A4.71,4.71,0,0,1,198.14,113.8Z"/><path class="cls-10" d="M197.29,113.8a3.87,3.87,0,1,1-3.86-3.86A3.86,3.86,0,0,1,197.29,113.8Z"/><path class="cls-7" d="M214.91,113.8a5.58,5.58,0,1,1-5.57-5.58A5.57,5.57,0,0,1,214.91,113.8Z"/><path class="cls-8" d="M214.06,113.8a4.72,4.72,0,1,1-4.72-4.72A4.72,4.72,0,0,1,214.06,113.8Z"/><path class="cls-11" d="M213.2,113.8a3.87,3.87,0,1,1-3.86-3.86A3.86,3.86,0,0,1,213.2,113.8Z"/><polygon class="cls-8" points="750.04 107.89 750.04 113.86 747.75 111.56 744.99 114.32 743.62 112.94 746.37 110.19 744.08 107.89 750.04 107.89"/><polygon class="cls-8" points="743.59 115.72 740.84 118.47 743.13 120.77 737.17 120.77 737.17 114.8 739.46 117.1 742.21 114.34 743.59 115.72"/><polygon class="cls-12" points="380.78 51.19 769.22 244.82 778.02 188.12 617.91 6.78 380.78 51.19"/><polygon class="cls-13" points="769.22 244.82 820.74 502.17 904.74 305.67 778.02 188.12 769.22 244.82"/><polygon class="cls-14" points="300.21 696.34 275.53 572.18 207.93 601.2 195.77 663.16 300.21 696.34"/><polygon class="cls-15" points="275.53 572.18 132.52 204.63 0 423.88 207.93 601.2 275.53 572.18"/><path class="cls-16" d="M250.87,497.12c-.13-28.71-4.19-56.06-13.3-82.6a10,10,0,0,0-6.74-6.77,245.77,245.77,0,0,0-66.41-13.27c-33.25-2-65.75,1.88-97.35,12.76a10.59,10.59,0,0,0-7.21,7.22,248.6,248.6,0,0,0-12.77,68.29A254.62,254.62,0,0,0,60,577.88a10,10,0,0,0,6.73,6.81,245.72,245.72,0,0,0,63.71,12.75,250.17,250.17,0,0,0,100.4-13.14,10.09,10.09,0,0,0,6.78-6.74C246.82,551.28,250.71,524.16,250.87,497.12Z"/><polygon class="cls-16" points="96.15 502.13 124.24 472.7 113.9 462.79 76.3 502.15 113.92 541.14 124.25 531.24 96.15 502.13"/><path class="cls-16" d="M173.91,435.65H159.24L123.7,556.38h14.67Z"/><polygon class="cls-16" points="183.71 462.79 173.37 472.7 201.46 502.13 173.36 531.24 183.69 541.14 221.3 502.15 183.71 462.79"/><path class="cls-16" d="M354.88,436.9a41.52,41.52,0,0,0-13.61-9.51,42.9,42.9,0,0,0-17.52-3.51,46.47,46.47,0,0,0-32.37,12.88,44.56,44.56,0,0,0-9.77,14.08A42.77,42.77,0,0,0,278,468.29v4.51h19.19v-4.51a24,24,0,0,1,2.05-9.92,25,25,0,0,1,5.74-8.08,29.84,29.84,0,0,1,8.55-5.55,25.71,25.71,0,0,1,10.22-2c7.33,0,13,2.39,17.4,7.28a26.19,26.19,0,0,1,6.71,18.29v13.58c-2.11.81-4.72,1.76-7.78,2.86-4.75,1.69-9.64,3.5-14.7,5.38s-9.7,3.61-14.09,5.2-7.56,2.77-9.5,3.6c-17.43,6.25-26.26,16.68-26.26,31v8.32a42.87,42.87,0,0,0,3.62,17.47,44.56,44.56,0,0,0,9.76,14.07,46.24,46.24,0,0,0,14.49,9.41,46.84,46.84,0,0,0,17.88,3.47,45.23,45.23,0,0,0,19.14-4.14,52.75,52.75,0,0,0,7.44-4.26v6.91H367V468.28A46.72,46.72,0,0,0,363.79,451,44.46,44.46,0,0,0,354.88,436.9ZM321.29,563.81a26.77,26.77,0,0,1-10.41-2,27.13,27.13,0,0,1-8.46-5.48,26,26,0,0,1-5.63-8.14,24.11,24.11,0,0,1-2.08-9.91v-8.32a9,9,0,0,1,3.74-7.73,39.61,39.61,0,0,1,10.22-5.62c1.66-.59,4.34-1.6,8.05-3L329,509c4.47-1.67,9-3.32,13.46-4.88l5.38-1.93v36.06a24.07,24.07,0,0,1-2.07,9.93,26.17,26.17,0,0,1-5.63,8.13,26.94,26.94,0,0,1-8.46,5.47A26.59,26.59,0,0,1,321.29,563.81Zm137.63-127a46.71,46.71,0,0,0-58.95-4.7V358.68H380.78V581.17H400v-6.9a52,52,0,0,0,7.43,4.24,45.15,45.15,0,0,0,19.13,4.14,46.57,46.57,0,0,0,32.39-12.87,45,45,0,0,0,9.75-14.08,42.79,42.79,0,0,0,3.62-17.46v-70a42.81,42.81,0,0,0-3.62-17.45A44.52,44.52,0,0,0,458.92,436.76Zm-32.38,127a27.25,27.25,0,0,1-18.87-7.52,25.82,25.82,0,0,1-5.63-8.14,24.11,24.11,0,0,1-2.07-9.91v-70a23.83,23.83,0,0,1,2.07-9.92,26.06,26.06,0,0,1,5.63-8.12,27.2,27.2,0,0,1,8.45-5.48,27.67,27.67,0,0,1,20.83,0,27.57,27.57,0,0,1,8.47,5.49,26.23,26.23,0,0,1,5.63,8.12,23.87,23.87,0,0,1,2.07,9.92v70a24.3,24.3,0,0,1-2.07,9.93,26.18,26.18,0,0,1-5.63,8.12,27.18,27.18,0,0,1-8.47,5.48A26.73,26.73,0,0,1,426.54,563.81Zm141.64-113a42.8,42.8,0,0,1,3.61,17.45v4.52H552.62v-4.52a23.72,23.72,0,0,0-2.08-9.92,26.06,26.06,0,0,0-5.63-8.12,27.33,27.33,0,0,0-8.47-5.49,27.62,27.62,0,0,0-20.81,0,27.25,27.25,0,0,0-8.46,5.48,26.23,26.23,0,0,0-5.63,8.12,23.83,23.83,0,0,0-2.07,9.92v70a24.11,24.11,0,0,0,2.07,9.91,26,26,0,0,0,5.63,8.14,27,27,0,0,0,8.46,5.48,27.42,27.42,0,0,0,29.28-5.48,26.2,26.2,0,0,0,5.64-8.12,24.3,24.3,0,0,0,2.07-9.93v-4.51h19.17v4.51a42.78,42.78,0,0,1-3.61,17.46,44.75,44.75,0,0,1-9.77,14.08,46.1,46.1,0,0,1-14.49,9.4,46.94,46.94,0,0,1-50.25-9.4,44.77,44.77,0,0,1-9.76-14.08,42.79,42.79,0,0,1-3.62-17.46v-70a42.81,42.81,0,0,1,3.62-17.45,44.33,44.33,0,0,1,9.76-14.07,46.9,46.9,0,0,1,64.74,0A44.58,44.58,0,0,1,568.18,450.83Zm96.06-10.12a42.31,42.31,0,0,0-14.42-10.53,45.16,45.16,0,0,0-34.77-.47,43,43,0,0,0-13.62,8.85,41.46,41.46,0,0,0-9.13,13.17A39.65,39.65,0,0,0,588.93,468v72.85a39.59,39.59,0,0,0,3.37,16.28,41.34,41.34,0,0,0,9.13,13.19,43.67,43.67,0,0,0,30.44,12.08,42.26,42.26,0,0,0,18-3.87,46,46,0,0,0,14.42-10.4v12.72h10.59V358.55H664.24Zm0,100.15a29.6,29.6,0,0,1-2.57,12.25,31.41,31.41,0,0,1-6.89,9.93A33.18,33.18,0,0,1,609,563a31.81,31.81,0,0,1-6.9-9.93,29.43,29.43,0,0,1-2.56-12.25V468a29.5,29.5,0,0,1,2.56-12.25,31.81,31.81,0,0,1,6.9-9.93,33.18,33.18,0,0,1,45.82,0,31.29,31.29,0,0,1,6.89,9.93A29.63,29.63,0,0,1,664.24,468Zm96.84-102.07a43,43,0,0,0-13.61-8.85,45.2,45.2,0,0,0-33.66,0,42.9,42.9,0,0,0-13.62,8.85A41.49,41.49,0,0,0,691.05,452a39.82,39.82,0,0,0-3.37,16.28v72.85a39.71,39.71,0,0,0,3.37,16.28,41.42,41.42,0,0,0,9.14,13.19,43,43,0,0,0,13.62,8.83,44.18,44.18,0,0,0,47.27-8.83,41.76,41.76,0,0,0,9.15-13.19,39.67,39.67,0,0,0,3.36-16.28H763a29.84,29.84,0,0,1-2.57,12.26,31.8,31.8,0,0,1-6.89,9.92,33.21,33.21,0,0,1-45.84,0,31.5,31.5,0,0,1-6.88-9.92,29.55,29.55,0,0,1-2.57-12.26V514.75c2.78-.83,6.62-2.17,11.54-4.05s10-3.7,15.23-5.57,10.08-3.65,14.58-5.43,7.68-2.94,9.6-3.56q24.36-8.67,24.37-27.9v-.3a39.25,39.25,0,0,0-3.36-16A41.49,41.49,0,0,0,761.08,438.79ZM757.25,480a47,47,0,0,1-11.55,6.52c-1.71.61-4.54,1.65-8.49,3.09s-8.28,3-13,4.67-9.42,3.35-14.1,5.11-8.66,3.24-11.86,4.48V468.24A29.49,29.49,0,0,1,700.84,456a31.75,31.75,0,0,1,6.88-9.94A33.09,33.09,0,0,1,718,439.4a32.64,32.64,0,0,1,42.46,16.44,28.76,28.76,0,0,1,2.57,12.1A14.32,14.32,0,0,1,757.25,480ZM873.5,428.25,831.82,581.1H816.77L775.1,428.25H786L824.13,568.7l38.14-140.45Z"/><path class="cls-16" d="M250.87,497.12c-.13-28.71-4.19-56.06-13.3-82.6a10,10,0,0,0-6.74-6.77,245.77,245.77,0,0,0-66.41-13.27c-33.25-2-65.75,1.88-97.35,12.76a10.59,10.59,0,0,0-7.21,7.22,248.6,248.6,0,0,0-12.77,68.29A254.62,254.62,0,0,0,60,577.88a10,10,0,0,0,6.73,6.81,245.72,245.72,0,0,0,63.71,12.75,250.17,250.17,0,0,0,100.4-13.14,10.09,10.09,0,0,0,6.78-6.74C246.82,551.28,250.71,524.16,250.87,497.12Z"/><polygon class="cls-17" points="96.15 502.13 124.24 472.7 113.9 462.79 76.3 502.15 113.92 541.14 124.25 531.24 96.15 502.13"/><path class="cls-17" d="M173.91,435.65H159.24L123.7,556.38h14.67Z"/><polygon class="cls-17" points="183.71 462.79 173.37 472.7 201.46 502.13 173.36 531.24 183.69 541.14 221.3 502.15 183.71 462.79"/><path class="cls-16" d="M354.88,436.9a41.52,41.52,0,0,0-13.61-9.51,42.9,42.9,0,0,0-17.52-3.51,46.47,46.47,0,0,0-32.37,12.88,44.56,44.56,0,0,0-9.77,14.08A42.77,42.77,0,0,0,278,468.29v4.51h19.19v-4.51a24,24,0,0,1,2.05-9.92,25,25,0,0,1,5.74-8.08,29.84,29.84,0,0,1,8.55-5.55,25.71,25.71,0,0,1,10.22-2c7.33,0,13,2.39,17.4,7.28a26.19,26.19,0,0,1,6.71,18.29v13.58c-2.11.81-4.72,1.76-7.78,2.86-4.75,1.69-9.64,3.5-14.7,5.38s-9.7,3.61-14.09,5.2-7.56,2.77-9.5,3.6c-17.43,6.25-26.26,16.68-26.26,31v8.32a42.87,42.87,0,0,0,3.62,17.47,44.56,44.56,0,0,0,9.76,14.07,46.24,46.24,0,0,0,14.49,9.41,46.84,46.84,0,0,0,17.88,3.47,45.23,45.23,0,0,0,19.14-4.14,52.75,52.75,0,0,0,7.44-4.26v6.91H367V468.28A46.72,46.72,0,0,0,363.79,451,44.46,44.46,0,0,0,354.88,436.9ZM321.29,563.81a26.77,26.77,0,0,1-10.41-2,27.13,27.13,0,0,1-8.46-5.48,26,26,0,0,1-5.63-8.14,24.11,24.11,0,0,1-2.08-9.91v-8.32a9,9,0,0,1,3.74-7.73,39.61,39.61,0,0,1,10.22-5.62c1.66-.59,4.34-1.6,8.05-3L329,509c4.47-1.67,9-3.32,13.46-4.88l5.38-1.93v36.06a24.07,24.07,0,0,1-2.07,9.93,26.17,26.17,0,0,1-5.63,8.13,26.94,26.94,0,0,1-8.46,5.47A26.59,26.59,0,0,1,321.29,563.81Zm137.63-127a46.71,46.71,0,0,0-58.95-4.7V358.68H380.78V581.17H400v-6.9a52,52,0,0,0,7.43,4.24,45.15,45.15,0,0,0,19.13,4.14,46.57,46.57,0,0,0,32.39-12.87,45,45,0,0,0,9.75-14.08,42.79,42.79,0,0,0,3.62-17.46v-70a42.81,42.81,0,0,0-3.62-17.45A44.52,44.52,0,0,0,458.92,436.76Zm-32.38,127a27.25,27.25,0,0,1-18.87-7.52,25.82,25.82,0,0,1-5.63-8.14,24.11,24.11,0,0,1-2.07-9.91v-70a23.83,23.83,0,0,1,2.07-9.92,26.06,26.06,0,0,1,5.63-8.12,27.2,27.2,0,0,1,8.45-5.48,27.67,27.67,0,0,1,20.83,0,27.57,27.57,0,0,1,8.47,5.49,26.23,26.23,0,0,1,5.63,8.12,23.87,23.87,0,0,1,2.07,9.92v70a24.3,24.3,0,0,1-2.07,9.93,26.18,26.18,0,0,1-5.63,8.12,27.18,27.18,0,0,1-8.47,5.48A26.73,26.73,0,0,1,426.54,563.81Zm141.64-113a42.8,42.8,0,0,1,3.61,17.45v4.52H552.62v-4.52a23.72,23.72,0,0,0-2.08-9.92,26.06,26.06,0,0,0-5.63-8.12,27.33,27.33,0,0,0-8.47-5.49,27.62,27.62,0,0,0-20.81,0,27.25,27.25,0,0,0-8.46,5.48,26.23,26.23,0,0,0-5.63,8.12,23.83,23.83,0,0,0-2.07,9.92v70a24.11,24.11,0,0,0,2.07,9.91,26,26,0,0,0,5.63,8.14,27,27,0,0,0,8.46,5.48,27.42,27.42,0,0,0,29.28-5.48,26.2,26.2,0,0,0,5.64-8.12,24.3,24.3,0,0,0,2.07-9.93v-4.51h19.17v4.51a42.78,42.78,0,0,1-3.61,17.46,44.75,44.75,0,0,1-9.77,14.08,46.1,46.1,0,0,1-14.49,9.4,46.94,46.94,0,0,1-50.25-9.4,44.77,44.77,0,0,1-9.76-14.08,42.79,42.79,0,0,1-3.62-17.46v-70a42.81,42.81,0,0,1,3.62-17.45,44.33,44.33,0,0,1,9.76-14.07,46.9,46.9,0,0,1,64.74,0A44.58,44.58,0,0,1,568.18,450.83Zm96.06-10.12a42.31,42.31,0,0,0-14.42-10.53,45.16,45.16,0,0,0-34.77-.47,43,43,0,0,0-13.62,8.85,41.46,41.46,0,0,0-9.13,13.17A39.65,39.65,0,0,0,588.93,468v72.85a39.59,39.59,0,0,0,3.37,16.28,41.34,41.34,0,0,0,9.13,13.19,43.67,43.67,0,0,0,30.44,12.08,42.26,42.26,0,0,0,18-3.87,46,46,0,0,0,14.42-10.4v12.72h10.59V358.55H664.24Zm0,100.15a29.6,29.6,0,0,1-2.57,12.25,31.41,31.41,0,0,1-6.89,9.93A33.18,33.18,0,0,1,609,563a31.81,31.81,0,0,1-6.9-9.93,29.43,29.43,0,0,1-2.56-12.25V468a29.5,29.5,0,0,1,2.56-12.25,31.81,31.81,0,0,1,6.9-9.93,33.18,33.18,0,0,1,45.82,0,31.29,31.29,0,0,1,6.89,9.93A29.63,29.63,0,0,1,664.24,468Zm96.84-102.07a43,43,0,0,0-13.61-8.85,45.2,45.2,0,0,0-33.66,0,42.9,42.9,0,0,0-13.62,8.85A41.49,41.49,0,0,0,691.05,452a39.82,39.82,0,0,0-3.37,16.28v72.85a39.71,39.71,0,0,0,3.37,16.28,41.42,41.42,0,0,0,9.14,13.19,43,43,0,0,0,13.62,8.83,44.18,44.18,0,0,0,47.27-8.83,41.76,41.76,0,0,0,9.15-13.19,39.67,39.67,0,0,0,3.36-16.28H763a29.84,29.84,0,0,1-2.57,12.26,31.8,31.8,0,0,1-6.89,9.92,33.21,33.21,0,0,1-45.84,0,31.5,31.5,0,0,1-6.88-9.92,29.55,29.55,0,0,1-2.57-12.26V514.75c2.78-.83,6.62-2.17,11.54-4.05s10-3.7,15.23-5.57,10.08-3.65,14.58-5.43,7.68-2.94,9.6-3.56q24.36-8.67,24.37-27.9v-.3a39.25,39.25,0,0,0-3.36-16A41.49,41.49,0,0,0,761.08,438.79ZM757.25,480a47,47,0,0,1-11.55,6.52c-1.71.61-4.54,1.65-8.49,3.09s-8.28,3-13,4.67-9.42,3.35-14.1,5.11-8.66,3.24-11.86,4.48V468.24A29.49,29.49,0,0,1,700.84,456a31.75,31.75,0,0,1,6.88-9.94A33.09,33.09,0,0,1,718,439.4a32.64,32.64,0,0,1,42.46,16.44,28.76,28.76,0,0,1,2.57,12.1A14.32,14.32,0,0,1,757.25,480ZM873.5,428.25,831.82,581.1H816.77L775.1,428.25H786L824.13,568.7l38.14-140.45Z"/><path class="cls-18" d="M289.82,200.76,282.2,219h-1.83L288,200.76Z"/><path class="cls-18" d="M301.63,200.76,294,219h-1.83l7.59-18.22Z"/><path class="cls-18" d="M317,217.55a8.23,8.23,0,0,1-4.79,1.43,6.1,6.1,0,0,1-5.18-2.34q-1.77-2.34-1.77-6.76a11.38,11.38,0,0,1,1.72-6.7,6,6,0,0,1,5.23-2.42,9.72,9.72,0,0,1,2.51.33,6.11,6.11,0,0,1,2,.85l-.67,1.61a7.69,7.69,0,0,0-3.84-1,4,4,0,0,0-3.6,1.76c-.79,1.18-1.18,3-1.18,5.57q0,7.31,4.78,7.31a8.18,8.18,0,0,0,4.15-1.25Z"/><path class="cls-18" d="M326.48,205.38a5.29,5.29,0,0,1,4.25,1.86,7.32,7.32,0,0,1,1.58,4.91,7.39,7.39,0,0,1-1.58,4.95,5.77,5.77,0,0,1-8.51,0,7.45,7.45,0,0,1-1.57-5,7.33,7.33,0,0,1,1.58-4.91A5.29,5.29,0,0,1,326.48,205.38Zm0,11.91a3.22,3.22,0,0,0,2.79-1.49,7.07,7.07,0,0,0,0-7.3,3.46,3.46,0,0,0-5.6,0,7.22,7.22,0,0,0,0,7.33A3.18,3.18,0,0,0,326.48,217.29Z"/><path class="cls-18" d="M348.8,218.64h-1.94v-8.5c0-2.06-.38-3.08-1.14-3.08-.39,0-.82.35-1.29,1.06a6.74,6.74,0,0,0-.7,1.17v9.35H341.8v-8.5c0-2.06-.38-3.08-1.15-3.08-.38,0-.81.35-1.28,1.06a6.74,6.74,0,0,0-.7,1.17v9.35h-1.94V205.69h1.87v1.95a5.21,5.21,0,0,1,1.29-1.65,2.4,2.4,0,0,1,1.5-.61,2,2,0,0,1,1.41.61,3.34,3.34,0,0,1,.86,1.65A5.1,5.1,0,0,1,345,206a2.38,2.38,0,0,1,1.49-.61q2.35,0,2.35,4.2Z"/><path class="cls-18" d="M355.89,207.37a4.66,4.66,0,0,1,1.75-1.45,5.17,5.17,0,0,1,2.32-.54,4,4,0,0,1,3.51,1.84,8.31,8.31,0,0,1,1.27,4.81,8.73,8.73,0,0,1-1.33,5,4.14,4.14,0,0,1-3.6,2,4.47,4.47,0,0,1-2.26-.6,4.72,4.72,0,0,1-1.66-1.6v7H354V205.69h1.94Zm0,1.92v5.39a5.28,5.28,0,0,0,1.48,1.82,3.1,3.1,0,0,0,1.93.74,2.83,2.83,0,0,0,2.49-1.47,6.67,6.67,0,0,0,.93-3.64,6.93,6.93,0,0,0-.88-3.66,2.77,2.77,0,0,0-2.47-1.41A4.12,4.12,0,0,0,355.89,209.29Z"/><path class="cls-18" d="M379.68,218.64h-1.93a7.74,7.74,0,0,1-.23-2.09A5.19,5.19,0,0,1,373,219a3.61,3.61,0,0,1-2.55-1,3.45,3.45,0,0,1-1.1-2.64,3.54,3.54,0,0,1,.39-1.69,3.42,3.42,0,0,1,1.13-1.24,6.1,6.1,0,0,1,1.82-.79,13.51,13.51,0,0,1,2.53-.41l2.18-.17v-.62q0-3.33-3.11-3.33a7.14,7.14,0,0,0-1.86.31,9.26,9.26,0,0,0-1.93.75l-.51-1.39a10.89,10.89,0,0,1,4.92-1.35q4.43,0,4.43,4.68v5.58A12.43,12.43,0,0,0,379.68,218.64Zm-2.26-3.84v-2.35c-1.75.16-2.95.31-3.6.44a4,4,0,0,0-1.69.77,1.81,1.81,0,0,0-.72,1.51,1.78,1.78,0,0,0,.61,1.41,2.31,2.31,0,0,0,1.55.53,4,4,0,0,0,2.06-.61A6.12,6.12,0,0,0,377.42,214.8Z"/><path class="cls-18" d="M394.57,206l-.78,1.86a5.73,5.73,0,0,0-2.21-.56,3.29,3.29,0,0,0-1.68.49,5.39,5.39,0,0,0-1.51,1.41,5.28,5.28,0,0,0-.69,1v8.38h-1.93V205.69h1.93v2.62c1-1.95,2.38-2.93,4-2.93A6.52,6.52,0,0,1,394.57,206Z"/><path class="cls-18" d="M409.6,218.06a9.1,9.1,0,0,1-3.84.89q-3.47,0-3.47-3.66v-7.92H399.8v-1.68h2.49v-3.55h1.89v3.55h4.4v1.68h-4.4v7.41a2.85,2.85,0,0,0,.52,1.83,1.71,1.71,0,0,0,1.42.65,7.44,7.44,0,0,0,3.15-.71Z"/><path class="cls-18" d="M420.53,218.64h-1.94V207.37h-3.82v-1.68h5.76Zm-.95-17.85a1.24,1.24,0,0,1,.93.39,1.29,1.29,0,0,1,.39.94,1.34,1.34,0,0,1-.38,1,1.27,1.27,0,0,1-.94.38,1.21,1.21,0,0,1-.9-.4,1.31,1.31,0,0,1-.39-.94,1.27,1.27,0,0,1,.39-.93A1.21,1.21,0,0,1,419.58,200.79Z"/><path class="cls-18" d="M436.49,218.64h-5.3V202.78h-3.38V201.1h5.32V217h3.36Z"/><path class="cls-18" d="M452.16,218.64h-1.94v-8.3a4.42,4.42,0,0,0-.55-2.51,2,2,0,0,0-1.74-.77c-1.18,0-2.45.73-3.81,2.21v9.37h-1.94V201.1h1.94v6.49a6.08,6.08,0,0,1,4.4-2.21c2.43,0,3.64,1.46,3.64,4.4Z"/><path class="cls-18" d="M467.66,218.64h-1.93a7.31,7.31,0,0,1-.24-2.09A5.16,5.16,0,0,1,461,219a3.61,3.61,0,0,1-2.55-1,3.45,3.45,0,0,1-1.1-2.64,3.54,3.54,0,0,1,.39-1.69,3.33,3.33,0,0,1,1.13-1.24,6.15,6.15,0,0,1,1.81-.79,13.76,13.76,0,0,1,2.54-.41l2.18-.17v-.62q0-3.33-3.11-3.33a7.14,7.14,0,0,0-1.86.31,9.26,9.26,0,0,0-1.93.75l-.51-1.39a10.89,10.89,0,0,1,4.92-1.35q4.43,0,4.43,4.68v5.58A12.43,12.43,0,0,0,467.66,218.64Zm-2.26-3.84v-2.35c-1.75.16-2.95.31-3.6.44a4,4,0,0,0-1.69.77,1.81,1.81,0,0,0-.72,1.51,1.78,1.78,0,0,0,.61,1.41,2.29,2.29,0,0,0,1.55.53,4,4,0,0,0,2.06-.61A6.25,6.25,0,0,0,465.4,214.8Z"/><path class="cls-18" d="M482.55,206l-.78,1.86a5.82,5.82,0,0,0-2.22-.56,3.32,3.32,0,0,0-1.68.49,5.39,5.39,0,0,0-1.51,1.41,5.28,5.28,0,0,0-.69,1v8.38h-1.93V205.69h1.93v2.62q1.56-2.92,4-2.93A6.53,6.53,0,0,1,482.55,206Z"/><path class="cls-18" d="M512.86,218.21a8.94,8.94,0,0,1-3.72.77,6.51,6.51,0,0,1-4.88-1.86,7.6,7.6,0,0,1,0-9.88,6.46,6.46,0,0,1,4.82-1.86,10.14,10.14,0,0,1,3.72.68l-.51,1.6a10,10,0,0,0-3.18-.6,4.34,4.34,0,0,0-3.39,1.38,6,6,0,0,0,0,7.37,4.24,4.24,0,0,0,3.37,1.48,9.66,9.66,0,0,0,3.38-.64Z"/><path class="cls-18" d="M522.81,205.38a5.29,5.29,0,0,1,4.25,1.86,7.32,7.32,0,0,1,1.58,4.91,7.39,7.39,0,0,1-1.58,4.95,5.77,5.77,0,0,1-8.51,0,7.5,7.5,0,0,1-1.57-5,7.33,7.33,0,0,1,1.58-4.91A5.29,5.29,0,0,1,522.81,205.38Zm0,11.91a3.22,3.22,0,0,0,2.79-1.49,7.07,7.07,0,0,0,0-7.3,3.45,3.45,0,0,0-5.59,0,7.18,7.18,0,0,0,0,7.33A3.18,3.18,0,0,0,522.81,217.29Z"/><path class="cls-18" d="M543.62,218.64h-1.94v-8.3a4.33,4.33,0,0,0-.56-2.51,2,2,0,0,0-1.73-.77c-1.19,0-2.46.73-3.82,2.21v9.37h-1.94V205.69h1.94v1.9a6.1,6.1,0,0,1,4.41-2.21c2.42,0,3.64,1.46,3.64,4.4Z"/><path class="cls-18" d="M559.3,218.64h-1.94v-8.3a4.41,4.41,0,0,0-.56-2.51,2,2,0,0,0-1.73-.77c-1.19,0-2.46.73-3.82,2.21v9.37h-1.94V201.1h1.94v6.49a6.1,6.1,0,0,1,4.41-2.21c2.42,0,3.64,1.46,3.64,4.4Z"/><path class="cls-18" d="M575.32,212.23h-8.89a5.25,5.25,0,0,0,1.27,3.63,4,4,0,0,0,3.13,1.43,11.14,11.14,0,0,0,3.64-.64l.34,1.56a9.79,9.79,0,0,1-4,.77,6.15,6.15,0,0,1-4.65-1.85,6.94,6.94,0,0,1-1.76-5,7.24,7.24,0,0,1,1.58-4.92,5.17,5.17,0,0,1,4.1-1.83,4.77,4.77,0,0,1,3.74,1.7,6.64,6.64,0,0,1,1.51,4.54Zm-2.12-1.58a3.68,3.68,0,0,0-.94-2.56,2.82,2.82,0,0,0-2.12-1,3.38,3.38,0,0,0-2.49,1,3.9,3.9,0,0,0-1.1,2.6Z"/><path class="cls-18" d="M590.45,218.21a8.93,8.93,0,0,1-3.71.77,6.5,6.5,0,0,1-4.88-1.86,7.57,7.57,0,0,1,0-9.88,6.44,6.44,0,0,1,4.81-1.86,10.11,10.11,0,0,1,3.72.68l-.51,1.6a10,10,0,0,0-3.18-.6,4.34,4.34,0,0,0-3.39,1.38,5.37,5.37,0,0,0-1.25,3.74,5.31,5.31,0,0,0,1.29,3.63,4.28,4.28,0,0,0,3.38,1.48,9.7,9.7,0,0,0,3.38-.64Z"/><path class="cls-18" d="M601.93,218.64H600V207.37h-3.82v-1.68h5.76ZM601,200.79a1.24,1.24,0,0,1,.93.39,1.29,1.29,0,0,1,.39.94,1.34,1.34,0,0,1-.38,1,1.29,1.29,0,0,1-.94.38,1.21,1.21,0,0,1-.9-.4,1.31,1.31,0,0,1-.39-.94,1.27,1.27,0,0,1,.39-.93A1.21,1.21,0,0,1,601,200.79Z"/><path class="cls-18" d="M620.89,218.64H619v-8.5c0-2.06-.38-3.08-1.14-3.08-.39,0-.82.35-1.29,1.06a6.74,6.74,0,0,0-.7,1.17v9.35h-1.93v-8.5c0-2.06-.39-3.08-1.16-3.08-.38,0-.8.35-1.27,1.06a6.74,6.74,0,0,0-.7,1.17v9.35h-1.94V205.69h1.86v1.95A5.38,5.38,0,0,1,612,206a2.36,2.36,0,0,1,1.5-.61,1.93,1.93,0,0,1,1.4.61,3.19,3.19,0,0,1,.86,1.65,5.26,5.26,0,0,1,1.31-1.65,2.36,2.36,0,0,1,1.49-.61q2.36,0,2.35,4.2Z"/><path class="cls-18" d="M636.36,212.23h-8.89a5.25,5.25,0,0,0,1.27,3.63,4.05,4.05,0,0,0,3.13,1.43,11.14,11.14,0,0,0,3.64-.64l.34,1.56a9.74,9.74,0,0,1-4,.77,6.12,6.12,0,0,1-4.65-1.85,6.94,6.94,0,0,1-1.77-5,7.29,7.29,0,0,1,1.58-4.92,5.19,5.19,0,0,1,4.1-1.83,4.8,4.8,0,0,1,3.75,1.7,6.63,6.63,0,0,1,1.5,4.54Zm-2.12-1.58a3.68,3.68,0,0,0-.94-2.56,2.8,2.8,0,0,0-2.11-1,3.38,3.38,0,0,0-2.5,1,4,4,0,0,0-1.1,2.6Z"/><path class="cls-18" d="M651.46,218.64h-1.94v-8.3a4.33,4.33,0,0,0-.56-2.51,2,2,0,0,0-1.73-.77c-1.19,0-2.46.73-3.82,2.21v9.37h-1.94V205.69h1.94v1.9a6.1,6.1,0,0,1,4.41-2.21c2.42,0,3.64,1.46,3.64,4.4Z"/><path class="cls-18" d="M666.47,218.06a9.1,9.1,0,0,1-3.84.89q-3.46,0-3.47-3.66v-7.92h-2.48v-1.68h2.48v-3.55h1.89v3.55h4.4v1.68h-4.4v7.41a2.91,2.91,0,0,0,.52,1.83,1.71,1.71,0,0,0,1.42.65,7.44,7.44,0,0,0,3.15-.71Z"/><path class="cls-18" d="M676.39,205.38a5.29,5.29,0,0,1,4.25,1.86,7.32,7.32,0,0,1,1.58,4.91,7.39,7.39,0,0,1-1.58,4.95,5.77,5.77,0,0,1-8.51,0,7.5,7.5,0,0,1-1.57-5,7.33,7.33,0,0,1,1.58-4.91A5.29,5.29,0,0,1,676.39,205.38Zm0,11.91a3.22,3.22,0,0,0,2.79-1.49,7.07,7.07,0,0,0,0-7.3,3.45,3.45,0,0,0-5.59,0,7.18,7.18,0,0,0,0,7.33A3.17,3.17,0,0,0,676.39,217.29Z"/><path class="cls-19" d="M287.12,249.2h-1.94V237.92h-3.81v-1.68h5.75Zm-.94-17.85a1.33,1.33,0,0,1,1.32,1.33,1.3,1.3,0,0,1-.38.95,1.28,1.28,0,0,1-.94.39,1.22,1.22,0,0,1-.9-.41,1.26,1.26,0,0,1-.4-.93,1.28,1.28,0,0,1,.4-.94A1.24,1.24,0,0,1,286.18,231.35Z"/><path class="cls-19" d="M304.12,231.85l-.51,1.58a9.23,9.23,0,0,0-2.47-.39,1.58,1.58,0,0,0-1.44.59,4.81,4.81,0,0,0-.39,2.38v.23h4.35v1.68h-4.35V249.2h-1.94V237.92h-3.26v-1.68h3.26v-.43a5.46,5.46,0,0,1,.84-3.47,3.7,3.7,0,0,1,2.93-1A10.42,10.42,0,0,1,304.12,231.85Z"/><path class="cls-16" d="M333.81,251.8l-.76,1.07a14.59,14.59,0,0,1-4.23-4.89,12.71,12.71,0,0,1,0-11.77,14.5,14.5,0,0,1,4.24-4.86l.76,1.06a13,13,0,0,0-3.28,4.28,12.76,12.76,0,0,0,3.28,15.11Z"/><path class="cls-20" d="M343.09,235.93a5.31,5.31,0,0,1,4.26,1.87,7.35,7.35,0,0,1,1.57,4.91,7.44,7.44,0,0,1-1.57,4.95,5.77,5.77,0,0,1-8.52,0,7.47,7.47,0,0,1-1.57-4.95,7.36,7.36,0,0,1,1.58-4.92A5.29,5.29,0,0,1,343.09,235.93Zm0,11.91a3.19,3.19,0,0,0,2.79-1.49,6.25,6.25,0,0,0,1-3.62,6.32,6.32,0,0,0-1-3.68,3.44,3.44,0,0,0-5.59,0,7.18,7.18,0,0,0,0,7.33A3.19,3.19,0,0,0,343.09,247.84Z"/><path class="cls-20" d="M363.9,249.2H362v-8.31a4.39,4.39,0,0,0-.55-2.5,2,2,0,0,0-1.73-.78q-1.79,0-3.82,2.21v9.38h-1.94v-13h1.94v1.91a6.05,6.05,0,0,1,4.4-2.22q3.64,0,3.64,4.4Z"/><path class="cls-20" d="M381.84,249.2H379.7l-1.94-6.14H372l-2,6.14h-2.12l5.73-17.54h2.45Zm-4.67-7.92-2.3-7.26-2.28,7.26Z"/><path class="cls-20" d="M387.79,237.92a4.64,4.64,0,0,1,1.75-1.44,5.18,5.18,0,0,1,2.32-.55,4,4,0,0,1,3.52,1.82,8.2,8.2,0,0,1,1.26,4.77,8.79,8.79,0,0,1-1.34,5,4.12,4.12,0,0,1-3.59,2,4.48,4.48,0,0,1-2.26-.61,4.55,4.55,0,0,1-1.66-1.6v1.87h-1.94V231.66h1.94Zm0,1.93v5.38a5.41,5.41,0,0,0,1.48,1.83,3.1,3.1,0,0,0,1.93.74,2.82,2.82,0,0,0,2.49-1.5,6.78,6.78,0,0,0,.93-3.67,6.68,6.68,0,0,0-.89-3.63,2.76,2.76,0,0,0-2.46-1.39A4.14,4.14,0,0,0,387.79,239.85Z"/><path class="cls-20" d="M411.55,248.77a8.94,8.94,0,0,1-3.72.77,6.51,6.51,0,0,1-4.88-1.86,7.61,7.61,0,0,1,0-9.89,6.46,6.46,0,0,1,4.82-1.86,10.15,10.15,0,0,1,3.72.69l-.51,1.6a10.07,10.07,0,0,0-3.19-.61,4.33,4.33,0,0,0-3.38,1.38,6,6,0,0,0,0,7.38,4.27,4.27,0,0,0,3.37,1.47,9.91,9.91,0,0,0,3.38-.63Z"/><path class="cls-20" d="M426.53,249.2h-1.94v-1.87a4.59,4.59,0,0,1-1.71,1.58,4.67,4.67,0,0,1-2.34.63,4,4,0,0,1-3.52-2,9.05,9.05,0,0,1-1.29-5,7.89,7.89,0,0,1,1.35-4.72,4.2,4.2,0,0,1,3.57-1.87,4.7,4.7,0,0,1,3.94,2v-6.26h1.94Zm-1.94-4v-5.38a4,4,0,0,0-3.36-2.24A2.89,2.89,0,0,0,418.7,239a6.4,6.4,0,0,0-.93,3.59,7.11,7.11,0,0,0,.87,3.7,2.7,2.7,0,0,0,2.41,1.47,3.2,3.2,0,0,0,1.48-.4,5,5,0,0,0,1.4-1.2A3,3,0,0,0,424.59,245.23Z"/><path class="cls-20" d="M442.61,242.78h-8.89a5.24,5.24,0,0,0,1.28,3.63,4,4,0,0,0,3.12,1.43,11.44,11.44,0,0,0,3.65-.63l.33,1.56a9.71,9.71,0,0,1-4,.77,6.12,6.12,0,0,1-4.65-1.86,6.93,6.93,0,0,1-1.77-5,7.23,7.23,0,0,1,1.59-4.91,5.15,5.15,0,0,1,4.1-1.84,4.78,4.78,0,0,1,3.74,1.71,6.6,6.6,0,0,1,1.5,4.54Zm-2.11-1.57a3.61,3.61,0,0,0-.95-2.56,2.8,2.8,0,0,0-2.11-1,3.35,3.35,0,0,0-2.49,1,3.9,3.9,0,0,0-1.1,2.6Z"/><path class="cls-20" d="M458,236.24l-4.91,13h-1.77l-4.88-13h2.11l3.67,10.31,3.67-10.31Z"/><path class="cls-16" d="M470.14,251.8l-.76,1.07a14.59,14.59,0,0,1-4.23-4.89,12.71,12.71,0,0,1,0-11.77,14.39,14.39,0,0,1,4.24-4.86l.76,1.06a13,13,0,0,0-3.28,4.28,12.76,12.76,0,0,0,3.28,15.11Z"/><path class="cls-16" d="M476.64,231.35a14.58,14.58,0,0,1,4.23,4.86,12.71,12.71,0,0,1,0,11.77,14.56,14.56,0,0,1-4.22,4.89l-.77-1.07a12.66,12.66,0,0,0,3.27-4.28,13.43,13.43,0,0,0,1-5.45,12.87,12.87,0,0,0-1-5.47,13.37,13.37,0,0,0-3.24-4.19Z"/><path class="cls-16" d="M488.5,231.35a14.47,14.47,0,0,1,4.23,4.86,12.71,12.71,0,0,1,0,11.77,14.45,14.45,0,0,1-4.22,4.89l-.77-1.07a12.41,12.41,0,0,0,3.27-4.28,13.42,13.42,0,0,0,1-5.45,13,13,0,0,0-1-5.47,13.56,13.56,0,0,0-3.25-4.19Z"/><path class="cls-16" d="M526.31,253.45h-1a3.18,3.18,0,0,1-2.59-1,5.94,5.94,0,0,1-.78-3.58v-1.19a6.27,6.27,0,0,0-.61-3.24,2.19,2.19,0,0,0-2-.91v-2a2.19,2.19,0,0,0,2-.91,6.27,6.27,0,0,0,.61-3.24v-1.21a5.89,5.89,0,0,1,.78-3.56,3.18,3.18,0,0,1,2.59-1h1v1.62h-.37a2.11,2.11,0,0,0-1.61.5,3.91,3.91,0,0,0-.46,2.38V237a9.08,9.08,0,0,1-.6,3.8,3.68,3.68,0,0,1-2,1.8,3.73,3.73,0,0,1,2,1.81,9,9,0,0,1,.6,3.8V249a3.88,3.88,0,0,0,.46,2.37,2.07,2.07,0,0,0,1.61.5h.37Z"/><path class="cls-20" d="M307.33,268.65a10,10,0,0,0-3.07-.53,5,5,0,0,0-2.5.53,1.59,1.59,0,0,0-.92,1.41,1.28,1.28,0,0,0,.43,1,4.08,4.08,0,0,0,1.69.78l1.85.54a8.08,8.08,0,0,1,2.09.86,3.36,3.36,0,0,1,1.21,1.22,3.32,3.32,0,0,1,.4,1.66A3.38,3.38,0,0,1,307,279a6.82,6.82,0,0,1-3.95,1.07,9.37,9.37,0,0,1-3.94-.72l.37-1.68a8,8,0,0,0,3.49.77,5.1,5.1,0,0,0,2.63-.6,1.81,1.81,0,0,0,1-1.6,1.68,1.68,0,0,0-.51-1.2,6,6,0,0,0-2.37-1.1c-1-.3-1.74-.53-2.21-.69a4.6,4.6,0,0,1-1.32-.68,3,3,0,0,1-.92-1.06,3,3,0,0,1-.32-1.4,3.05,3.05,0,0,1,1.47-2.66,6.9,6.9,0,0,1,3.89-1,13.34,13.34,0,0,1,3.48.53Z"/><path class="cls-20" d="M323.83,279.76h-1.94v-8.31a4.51,4.51,0,0,0-.55-2.51,2,2,0,0,0-1.74-.77c-1.18,0-2.46.74-3.82,2.21v9.38h-1.94V262.21h1.94v6.49a6.1,6.1,0,0,1,4.41-2.21q3.65,0,3.64,4.4Z"/><path class="cls-20" d="M339.33,279.76H337.4a7.4,7.4,0,0,1-.24-2.09,5.18,5.18,0,0,1-4.5,2.42,3.62,3.62,0,0,1-2.54-1,3.48,3.48,0,0,1-1.1-2.65,3.54,3.54,0,0,1,.39-1.69,3.23,3.23,0,0,1,1.13-1.23,5.8,5.8,0,0,1,1.81-.8,13.83,13.83,0,0,1,2.54-.4l2.17-.18v-.62q0-3.33-3.1-3.33a7.14,7.14,0,0,0-1.86.31,10.2,10.2,0,0,0-1.94.76l-.51-1.4a11,11,0,0,1,4.93-1.35q4.43,0,4.42,4.69v5.57A12.49,12.49,0,0,0,339.33,279.76Zm-2.27-3.85v-2.35a36.15,36.15,0,0,0-3.6.45,4,4,0,0,0-1.69.76,1.84,1.84,0,0,0-.71,1.52,1.75,1.75,0,0,0,.61,1.4,2.23,2.23,0,0,0,1.55.54,3.94,3.94,0,0,0,2-.62A6,6,0,0,0,337.06,275.91Z"/><path class="cls-20" d="M354.22,267.15l-.78,1.86a5.77,5.77,0,0,0-2.21-.56,3.26,3.26,0,0,0-1.68.49,5.55,5.55,0,0,0-1.52,1.41,5.38,5.38,0,0,0-.69,1v8.38h-1.92v-13h1.92v2.62q1.56-2.93,4-2.93A6.53,6.53,0,0,1,354.22,267.15Z"/><path class="cls-20" d="M365.58,279.76h-1.94V268.48h-3.82V266.8h5.76Zm-.95-17.86a1.24,1.24,0,0,1,.93.39,1.29,1.29,0,0,1,.39.94,1.34,1.34,0,0,1-.38,1,1.25,1.25,0,0,1-.94.38,1.21,1.21,0,0,1-.9-.4,1.32,1.32,0,0,1,0-1.87A1.21,1.21,0,0,1,364.63,261.9Z"/><path class="cls-20" d="M383,279.76h-1.94v-8.31a4.42,4.42,0,0,0-.55-2.51,2,2,0,0,0-1.74-.77q-1.77,0-3.81,2.21v9.38h-1.94v-13H375v1.9a6.08,6.08,0,0,1,4.4-2.21q3.64,0,3.64,4.4Z"/><path class="cls-20" d="M392.12,274.87c-1.21.59-1.81,1.11-1.81,1.55a.72.72,0,0,0,.41.61,2.19,2.19,0,0,0,1.14.25l4.37-.12a3.5,3.5,0,0,1,2.41.76,2.69,2.69,0,0,1,.87,2.15,4,4,0,0,1-2,3.5,8.11,8.11,0,0,1-4.59,1.31,6.26,6.26,0,0,1-3.51-.9,2.69,2.69,0,0,1-1.37-2.34c0-1,.7-1.9,2.11-2.62-1.17-.54-1.75-1.22-1.75-2s.75-1.76,2.26-2.55a4.4,4.4,0,0,1-2.16-3.77,3.93,3.93,0,0,1,1.24-3,4.38,4.38,0,0,1,3.11-1.18,5.23,5.23,0,0,1,2.42.56l3.85-.58v1.89h-2.48a4.52,4.52,0,0,1,.56,2.31,4.06,4.06,0,0,1-1.23,3,4.26,4.26,0,0,1-3.12,1.22C392.62,274.9,392.36,274.89,392.12,274.87Zm.83,8.5a6,6,0,0,0,3.27-.85,2.47,2.47,0,0,0,1.35-2.11q0-1.29-1.92-1.29c-.42,0-1.15,0-2.18.08-.66,0-1.17.05-1.55.05a1.81,1.81,0,0,0-.85.44,3.92,3.92,0,0,0-.88.91,1.6,1.6,0,0,0-.31.93,1.55,1.55,0,0,0,.85,1.3A4.08,4.08,0,0,0,393,283.37Zm-.07-10a2.28,2.28,0,0,0,1.75-.74,3.21,3.21,0,0,0,0-3.9,2.31,2.31,0,0,0-1.77-.71,2.28,2.28,0,0,0-1.73.74,3,3,0,0,0,0,3.86A2.26,2.26,0,0,0,392.88,273.39Z"/><path class="cls-16" d="M411.54,282.35l-.76,1.07a14.74,14.74,0,0,1-4.22-4.88,12.67,12.67,0,0,1,0-11.77,14.64,14.64,0,0,1,4.24-4.87l.76,1.07a12.89,12.89,0,0,0-3.27,4.27,15.11,15.11,0,0,0,0,10.89A13.46,13.46,0,0,0,411.54,282.35Z"/><path class="cls-16" d="M418.05,261.9a14.58,14.58,0,0,1,4.22,4.87,12.67,12.67,0,0,1,0,11.77,14.74,14.74,0,0,1-4.22,4.88l-.77-1.07a12.66,12.66,0,0,0,3.27-4.28,13.35,13.35,0,0,0,1-5.44,12.84,12.84,0,0,0-1-5.47,13.4,13.4,0,0,0-3.24-4.19Z"/><path class="cls-16" d="M433.34,280.09a1.69,1.69,0,0,1-1.07-.53,1.53,1.53,0,0,1-.42-1.05,1.48,1.48,0,0,1,.41-1.07,1.34,1.34,0,0,1,1-.43,1.59,1.59,0,0,1,1.2.56,2,2,0,0,1,.51,1.37q0,2.43-2.71,3.8l-.47-.9C432.83,281.35,433.34,280.76,433.34,280.09Zm0-13.48a1.5,1.5,0,0,1,1.07.43,1.44,1.44,0,0,1,.44,1,1.41,1.41,0,0,1-.44,1.06,1.49,1.49,0,0,1-1.07.42,1.39,1.39,0,0,1-1-.43,1.42,1.42,0,0,1-.42-1.05,1.46,1.46,0,0,1,.42-1A1.43,1.43,0,0,1,433.31,266.61Z"/><path class="cls-20" d="M300.64,299a4.82,4.82,0,0,1,1.75-1.45,5.23,5.23,0,0,1,2.32-.54,4.07,4.07,0,0,1,3.53,1.81,8.22,8.22,0,0,1,1.26,4.78,8.85,8.85,0,0,1-1.34,5,4.15,4.15,0,0,1-3.6,2,4.41,4.41,0,0,1-2.26-.61,4.61,4.61,0,0,1-1.66-1.59v1.86H298.7V292.77h1.94Zm0,1.92v5.39a5.47,5.47,0,0,0,1.48,1.82,3.12,3.12,0,0,0,1.93.74,2.81,2.81,0,0,0,2.49-1.49,6.83,6.83,0,0,0,.93-3.67,6.66,6.66,0,0,0-.88-3.63,2.77,2.77,0,0,0-2.46-1.4A4.14,4.14,0,0,0,300.64,301Z"/><path class="cls-20" d="M324.86,303.9H316a5.27,5.27,0,0,0,1.27,3.63,4,4,0,0,0,3.13,1.43,11.14,11.14,0,0,0,3.64-.64l.34,1.56a9.79,9.79,0,0,1-4,.77,6.15,6.15,0,0,1-4.65-1.85,7,7,0,0,1-1.76-5,7.29,7.29,0,0,1,1.58-4.92,5.19,5.19,0,0,1,4.1-1.83,4.77,4.77,0,0,1,3.74,1.7,6.59,6.59,0,0,1,1.51,4.54Zm-2.12-1.58a3.68,3.68,0,0,0-.94-2.56,2.83,2.83,0,0,0-2.11-1,3.39,3.39,0,0,0-2.5,1,4,4,0,0,0-1.1,2.6Z"/><path class="cls-20" d="M342.34,310.31H340.2l-1.94-6.14h-5.75l-2,6.14h-2.11l5.73-17.54h2.45Zm-4.66-7.92-2.3-7.26-2.29,7.26Z"/><path class="cls-20" d="M357.67,297.36l-1.86,12.95h-1.48L351.28,303l-3,7.33h-1.48l-1.83-12.95h1.93q1,9.08,1.07,9.52l2.37-5.63h2l2.36,5.59,1.05-9.48Z"/><path class="cls-20" d="M372.44,303.9h-8.89a5.27,5.27,0,0,0,1.27,3.63A4,4,0,0,0,368,309a11.14,11.14,0,0,0,3.64-.64l.34,1.56a9.79,9.79,0,0,1-4,.77,6.15,6.15,0,0,1-4.65-1.85,7,7,0,0,1-1.76-5,7.24,7.24,0,0,1,1.58-4.92,5.17,5.17,0,0,1,4.1-1.83,4.77,4.77,0,0,1,3.74,1.7,6.59,6.59,0,0,1,1.51,4.54Zm-2.12-1.58a3.68,3.68,0,0,0-.94-2.56,2.83,2.83,0,0,0-2.12-1,3.38,3.38,0,0,0-2.49,1,3.9,3.9,0,0,0-1.1,2.6Z"/><path class="cls-20" d="M385.86,299.21a9.81,9.81,0,0,0-3.08-.54,5,5,0,0,0-2.49.53,1.59,1.59,0,0,0-.92,1.41,1.33,1.33,0,0,0,.42,1,4.08,4.08,0,0,0,1.69.78l1.85.53a7.92,7.92,0,0,1,2.09.87,3.42,3.42,0,0,1,1.21,1.21,3.32,3.32,0,0,1,.41,1.66,3.37,3.37,0,0,1-1.56,2.93,6.75,6.75,0,0,1-4,1.08,9.37,9.37,0,0,1-3.94-.72l.37-1.68a8.14,8.14,0,0,0,3.5.77,5.08,5.08,0,0,0,2.62-.6,1.82,1.82,0,0,0,1-1.6,1.68,1.68,0,0,0-.51-1.2,6,6,0,0,0-2.36-1.1l-2.22-.69a4.6,4.6,0,0,1-1.32-.68,3.1,3.1,0,0,1,.23-5.12,6.84,6.84,0,0,1,3.89-1,12.87,12.87,0,0,1,3.48.53Z"/><path class="cls-20" d="M397.6,297.05a5.29,5.29,0,0,1,4.25,1.86,7.35,7.35,0,0,1,1.58,4.91,7.44,7.44,0,0,1-1.58,4.95,5.77,5.77,0,0,1-8.51,0,7.45,7.45,0,0,1-1.58-5,7.31,7.31,0,0,1,1.58-4.91A5.31,5.31,0,0,1,397.6,297.05Zm0,11.91a3.21,3.21,0,0,0,2.78-1.49,7.07,7.07,0,0,0,0-7.3,3.43,3.43,0,0,0-5.59,0,7.18,7.18,0,0,0,0,7.33A3.18,3.18,0,0,0,397.6,309Z"/><path class="cls-20" d="M419.92,310.31H418v-8.5q0-3.09-1.14-3.09c-.4,0-.82.36-1.29,1.07a6.74,6.74,0,0,0-.7,1.17v9.35h-1.93v-8.5c0-2.06-.39-3.09-1.16-3.09-.38,0-.8.36-1.27,1.07a6.74,6.74,0,0,0-.7,1.17v9.35h-1.94V297.36h1.86v1.95a5.38,5.38,0,0,1,1.3-1.65,2.36,2.36,0,0,1,1.5-.61,1.93,1.93,0,0,1,1.4.61,3.27,3.27,0,0,1,.86,1.65,5.26,5.26,0,0,1,1.31-1.65,2.36,2.36,0,0,1,1.49-.61c1.56,0,2.35,1.4,2.35,4.2Z"/><path class="cls-20" d="M435.39,303.9H426.5a5.27,5.27,0,0,0,1.27,3.63A4,4,0,0,0,430.9,309a11.14,11.14,0,0,0,3.64-.64l.34,1.56a9.79,9.79,0,0,1-4,.77,6.15,6.15,0,0,1-4.65-1.85,7,7,0,0,1-1.76-5,7.29,7.29,0,0,1,1.58-4.92,5.19,5.19,0,0,1,4.1-1.83,4.77,4.77,0,0,1,3.74,1.7,6.59,6.59,0,0,1,1.51,4.54Zm-2.12-1.58a3.68,3.68,0,0,0-.94-2.56,2.83,2.83,0,0,0-2.11-1,3.39,3.39,0,0,0-2.5,1,4,4,0,0,0-1.1,2.6Z"/><path class="cls-16" d="M448.21,312.91l-.76,1.07a14.59,14.59,0,0,1-4.23-4.89,12.69,12.69,0,0,1,0-11.76,14.33,14.33,0,0,1,4.24-4.87l.76,1.07a12.93,12.93,0,0,0-3.28,4.27,15,15,0,0,0,0,10.89A13.28,13.28,0,0,0,448.21,312.91Z"/><path class="cls-16" d="M454.71,292.46a14.4,14.4,0,0,1,4.23,4.87,12.69,12.69,0,0,1,0,11.76,14.45,14.45,0,0,1-4.22,4.89l-.77-1.07a12.57,12.57,0,0,0,3.28-4.28,13.41,13.41,0,0,0,1-5.44,13,13,0,0,0-1-5.47,13.19,13.19,0,0,0-3.25-4.19Z"/><path class="cls-16" d="M470,310.65a1.65,1.65,0,0,1-1.07-.54,1.55,1.55,0,0,1,0-2.11,1.36,1.36,0,0,1,1-.44,1.6,1.6,0,0,1,1.21.57,2,2,0,0,1,.5,1.36c0,1.63-.9,2.89-2.7,3.81l-.48-.9C469.49,311.9,470,311.32,470,310.65Zm0-13.48a1.44,1.44,0,0,1,1.07.43,1.51,1.51,0,0,1,0,2.11,1.47,1.47,0,0,1-1.07.42,1.39,1.39,0,0,1-1-.43,1.52,1.52,0,0,1,0-2.1A1.39,1.39,0,0,1,470,297.17Z"/><path class="cls-16" d="M288.47,335.24a2.18,2.18,0,0,0-2,.91,6.15,6.15,0,0,0-.62,3.24v1.19a5.94,5.94,0,0,1-.78,3.58,3.14,3.14,0,0,1-2.58,1h-1v-1.63h.39a2.1,2.1,0,0,0,1.61-.5,4,4,0,0,0,.45-2.37v-.8a9,9,0,0,1,.6-3.79,3.7,3.7,0,0,1,2-1.81,3.66,3.66,0,0,1-2-1.81,9,9,0,0,1-.6-3.79v-.79a4,4,0,0,0-.45-2.38,2.14,2.14,0,0,0-1.61-.5h-.39v-1.62h1a3.14,3.14,0,0,1,2.58,1,5.89,5.89,0,0,1,.78,3.56v1.21a6.77,6.77,0,0,0,.55,3.12,2.08,2.08,0,0,0,2,1Z"/></svg>